<svg xmlns="http://www.w3.org/2000/svg" viewBox="0 0 256 256" role="img" aria-labelledby="title desc">
  <title id="title">IsolaPurr USB Hub monochrome mark</title>
  <desc id="desc">A monochrome abstract cat paw circuit mark for IsolaPurr USB Hub.</desc>
  <rect width="256" height="256" rx="56" fill="#151c2f" />
  <g fill="#f8fbff">
    <circle cx="84" cy="91" r="21" />
    <circle cx="116" cy="70" r="20" />
    <circle cx="151" cy="70" r="20" />
    <circle cx="181" cy="94" r="21" />
    <path d="M84 148c0-27.6 18.4-49 44-49s44 21.4 44 49c0 21.6-13.7 33-30.4 26.4-8.9-3.5-18.3-3.5-27.2 0C97.7 181 84 169.6 84 148Z" />
  </g>
  <g fill="none" stroke="#151c2f" stroke-linecap="round" stroke-linejoin="round" stroke-width="8">
    <path d="M128 99v45" />
    <path d="M105 143H74" />
    <path d="M151 143h31" />
    <path d="M116 119 91 94" />
    <path d="M140 119 166 93" />
  </g>
</svg>
