<svg xmlns="http://www.w3.org/2000/svg" viewBox="0 0 256 256" role="img" aria-labelledby="title desc">
  <title id="title">IsolaPurr USB Hub mark</title>
  <desc id="desc">An abstract cat paw circuit mark for IsolaPurr USB Hub.</desc>
  <defs>
    <linearGradient id="pad" x1="64" x2="192" y1="32" y2="224" gradientUnits="userSpaceOnUse">
      <stop offset="0" stop-color="#66d9d0" />
      <stop offset="0.56" stop-color="#6672cc" />
      <stop offset="1" stop-color="#3c4b87" />
    </linearGradient>
    <linearGradient id="trace" x1="52" x2="212" y1="46" y2="196" gradientUnits="userSpaceOnUse">
      <stop offset="0" stop-color="#dffaf6" />
      <stop offset="1" stop-color="#c9d1ff" />
    </linearGradient>
  </defs>
  <rect width="256" height="256" rx="56" fill="#f5f7fb" />
  <path
    fill="#151c2f"
    d="M128 32c47.5 0 86 38.5 86 86 0 27.3-12.8 51.7-32.7 67.4l5.5 24.3c1.7 7.7-5.9 14.1-13.2 11l-22.7-9.5a86 86 0 1 1-22.9-179.2Z"
    opacity=".08"
  />
  <path
    fill="url(#pad)"
    d="M128 38c43.6 0 79 35.4 79 79 0 25.6-12.2 48.4-31.1 62.9l5.7 25.4c.9 4.1-3.2 7.5-7.1 5.9l-24.3-10.2A79 79 0 1 1 128 38Z"
  />
  <g fill="#f8fbff">
    <circle cx="84" cy="91" r="21" />
    <circle cx="116" cy="70" r="20" />
    <circle cx="151" cy="70" r="20" />
    <circle cx="181" cy="94" r="21" />
    <path d="M84 148c0-27.6 18.4-49 44-49s44 21.4 44 49c0 21.6-13.7 33-30.4 26.4-8.9-3.5-18.3-3.5-27.2 0C97.7 181 84 169.6 84 148Z" />
  </g>
  <g fill="none" stroke="url(#trace)" stroke-linecap="round" stroke-linejoin="round" stroke-width="8">
    <path d="M128 99v45" />
    <path d="M105 143H74" />
    <path d="M151 143h31" />
    <path d="M116 119 91 94" />
    <path d="M140 119 166 93" />
  </g>
  <g fill="#151c2f">
    <circle cx="74" cy="143" r="6" />
    <circle cx="182" cy="143" r="6" />
    <circle cx="128" cy="144" r="7" />
  </g>
</svg>
